<svg width="33" height="21" viewBox="0 0 33 21" fill="none" xmlns="http://www.w3.org/2000/svg">
<path fill-rule="evenodd" clip-rule="evenodd" d="M12.8133 1.30867C11.5566 0.436225 10.054 0 8.30545 0C6.55693 0 5.0543 0.436225 3.79756 1.30867C2.54081 2.16295 1.5937 3.34439 0.956219 4.853C0.31874 6.36162 0 8.08834 0 10.0332C0 11.978 0.31874 13.7047 0.956219 15.2134C1.5937 16.722 2.54081 17.9125 3.79756 18.7849C5.0543 19.6392 6.55693 20.0664 8.30545 20.0664C10.054 20.0664 11.5566 19.6392 12.8133 18.7849C14.0701 17.9125 15.0172 16.722 15.6547 15.2134C16.2922 13.7047 16.6109 11.978 16.6109 10.0332C16.6109 8.08834 16.2922 6.36162 15.6547 4.853C15.0172 3.34439 14.0701 2.16295 12.8133 1.30867ZM10.6721 4.66869C10.0615 4.02817 9.27261 3.70791 8.30545 3.70791C7.01228 3.70791 6.02874 4.28046 5.35483 5.42555C4.69914 6.57064 4.37129 8.10652 4.37129 10.0332C4.37129 11.2427 4.50049 12.2982 4.7589 13.1997L10.6721 4.66869ZM5.92143 15.3955C6.54251 16.0375 7.33719 16.3584 8.30545 16.3584C9.59862 16.3584 10.5731 15.7859 11.2287 14.6408C11.9027 13.4957 12.2396 11.9598 12.2396 10.0332C12.2396 8.82 12.106 7.76176 11.8388 6.85847L5.92143 15.3955Z" fill="white"/>
<path d="M21.7984 12.1052L16.6621 19.6301H21.5798L23.984 15.3769C24.1661 15.0861 24.2754 14.7044 24.3118 14.2318C24.3301 14.0501 24.3665 13.9138 24.4211 13.8229C24.4758 13.7138 24.585 13.6593 24.749 13.6593C25.004 13.6593 25.1497 13.8229 25.1861 14.1501V14.2318C25.2225 14.7044 25.3318 15.0861 25.5139 15.3769L27.9182 19.6301H32.8359L27.6996 12.1052L32.3987 5.2347H27.481L25.5139 8.8063C25.2954 9.18799 25.1861 9.56969 25.1861 9.95139C25.1861 10.115 25.1497 10.2513 25.0768 10.3603C25.0222 10.4694 24.9129 10.5239 24.749 10.5239C24.585 10.5239 24.4667 10.4694 24.3938 10.3603C24.3392 10.2513 24.3118 10.115 24.3118 9.95139C24.3118 9.56969 24.2026 9.18799 23.984 8.8063L22.0169 5.2347H17.0992L21.7984 12.1052Z" fill="white"/>
</svg>
